:SAMPLES-PER-SECOND 30
:FULLY-SPECIFIED
:DEGREES
186
root  -4.401666536 34.29088743 6.757911172 5.785003662 -3.214996338 -4.682006836
lowerback  12.67020035 6.419199944 -1.100739956
upperback  4.390460014 8.200340271 -3.540669918
thorax  -2.051369905 4.091070175 -4.220129967
lowerneck  4.86590004 -6.852829933 -12.76109982
upperneck  1.385920048 -10.09630013 21.88220024
head  1.389529943 -5.248159885 8.795610428
lclavicle  0 -9.442270133e-015 7.951389973e-016
lhumerus  -12.51049995 -24.66460037 79.70330048
lradius  2.610319196e-031 -2.378040734e-031 137.6660004
lwrist  -7.062250077e-031 -0 12.77519989
lhand  -1.496451383e-031 -27.76390076 20.11240005
lfingers  90 7.125020027 -90
lthumb  89.89689403 5.08795885 91.16245106
rclavicle  0 -9.442270133e-015 7.951389973e-016
rhumerus  38.28010178 -7.596350193 -37.9408989
rradius  2.728802645e-031 2.241089057e-031 39.39530182
rwrist  3.531125038e-031 -3.531125038e-031 3.623039961
rhand  -7.920061211e-032 -33.2840004 9.303460121
rfingers  -90 -7.125020027 -90
rthumb  -92.93752616 -24.25625642 -97.11982154
rfemur  6.308460236 3.879849911 21.28650093
rtibia  -0 0 55.05139923
rfoot  -5.012150907e-032 -28.28019905 -2.568459988
rtoes  5.373923086 19.29304026 -105.8922705
lfemur  -66.56829834 -1.559990048 -6.5426898
ltibia  -0 0 69.93060303
lfoot  -0 0.6064969897 -7.314879894
ltoes  -4.250644065 -19.5611806 -102.515957
187
root  -4.477511053 34.4791112 6.627977927 5.906997681 -3.945007324 -4.63999939
lowerback  12.73869991 6.523560047 -1.248970032
upperback  4.415679932 8.316300392 -3.483279943
thorax  -2.084189892 4.145329952 -4.103199959
lowerneck  4.929369926 -6.790890217 -12.91569996
upperneck  1.24048996 -10.00440025 21.9144001
head  1.330770016 -5.212170124 8.842700005
lclavicle  0 -9.442270133e-015 7.951389973e-016
lhumerus  -12.73410034 -24.57019997 80.32720184
lradius  2.615087196e-031 -2.37279645e-031 137.7810059
lwrist  0 -0 12.87510014
lhand  -1.496451383e-031 -27.76390076 20.11240005
lfingers  90 7.125020027 -90
lthumb  89.89689403 5.08795885 91.16245106
rclavicle  0 -9.442270133e-015 7.951389973e-016
rhumerus  37.63159943 -6.753640175 -39.21160126
rradius  2.695017485e-031 2.281605749e-031 40.25130081
rwrist  7.062250077e-031 -3.531125038e-031 2.31208992
rhand  -7.920061211e-032 -33.2840004 9.303460121
rfingers  -90 -7.125020027 -90
rthumb  -92.93752616 -24.25625642 -97.11982154
rfemur  5.591189861 4.732389927 20.90069962
rtibia  -0 0 55.13000107
rfoot  -5.578141801e-032 -27.10199928 -0.5972219706
rtoes  5.373923086 19.29304026 -105.8922705
lfemur  -65.82240295 -1.86740005 -5.883230209
ltibia  -0 0 68.69290161
lfoot  4.414412126e-032 0.8673750162 -6.482820034
ltoes  -4.250644065 -19.5611806 -102.515957
188
root  -4.552377866 34.69333198 6.489244596 6.059005737 -4.800994873 -4.462997437
lowerback  12.72140026 6.653490067 -1.617869973
upperback  4.497630119 8.442700386 -3.442120075
thorax  -2.040529966 4.203989983 -3.870539904
lowerneck  4.637229919 -6.763949871 -12.98110008
upperneck  1.295250058 -9.953430176 21.82099915
head  1.386039972 -5.169119835 8.810819626
lclavicle  0 -9.442270133e-015 7.951389973e-016
lhumerus  -12.71570015 -24.37109947 80.85279846
lradius  2.620091807e-031 -2.367269093e-031 137.9019928
lwrist  -7.062250077e-031 -0 13.39210033
lhand  -1.496451383e-031 -27.76390076 20.11240005
lfingers  90 7.125020027 -90
lthumb  89.89689403 5.08795885 91.16245106
rclavicle  0 -9.442270133e-015 7.951389973e-016
rhumerus  37.11619949 -6.537419796 -41.50450134
rradius  2.668960712e-031 2.31203217e-031 40.90129852
rwrist  1.412450015e-030 -3.531125038e-031 1.663380027
rhand  -7.920061211e-032 -33.2840004 9.303460121
rfingers  -90 -7.125020027 -90
rthumb  -92.93752616 -24.25625642 -97.11982154
rfemur  4.78591013 5.698810101 20.36840057
rtibia  -0 0 55.18909836
rfoot  -6.129341223e-032 -25.82099915 1.169420004
rtoes  5.373923086 19.29304026 -105.8922705
lfemur  -64.95020294 -2.254509926 -5.312709808
ltibia  -0 0 67.26799774
lfoot  4.414772666e-032 1.135120034 -5.428979874
ltoes  -4.250644065 -19.5611806 -102.515957
189
root  -4.62631128 34.92955486 6.3411998 6.229003906 -5.690002441 -4.322006226
lowerback  12.76220036 6.779170036 -1.954810023
upperback  4.508160114 8.561530113 -3.425849915
thorax  -2.096189976 4.257699966 -3.694000006
lowerneck  4.331639767 -6.750889778 -12.93389988
upperneck  1.492560029 -9.933859825 21.69330025
head  1.481660008 -5.135630131 8.744429588
lclavicle  0 -9.442270133e-015 7.951389973e-016
lhumerus  -12.71720028 -24.39959908 81.36540222
lradius  2.621289941e-031 -2.365942324e-031 137.9309998
lwrist  -7.062250077e-031 1.765562519e-031 13.57069969
lhand  -1.496451383e-031 -27.76390076 20.11240005
lfingers  90 7.125020027 -90
lthumb  89.89689403 5.08795885 91.16245106
rclavicle  0 -9.442270133e-015 7.951389973e-016
rhumerus  36.4129982 -6.751780033 -44.07690048
rradius  2.638808297e-031 2.346387609e-031 41.64300156
rwrist  3.531125038e-031 -3.531125038e-031 1.517240047
rhand  -7.920061211e-032 -33.2840004 9.303460121
rfingers  -90 -7.125020027 -90
rthumb  -92.93752616 -24.25625642 -97.11982154
rfemur  3.951050043 6.67757988 19.8708992
rtibia  -0 0 55.16019821
rfoot  -4.847246657e-032 -24.41150093 2.805710077
rtoes  5.373923086 19.29304026 -105.8922705
lfemur  -63.9620018 -2.744910002 -4.643630028
ltibia  -0 0 65.63500214
lfoot  4.415216183e-032 1.395689964 -4.214819908
ltoes  -4.250644065 -19.5611806 -102.515957
